<svg xmlns="http://www.w3.org/2000/svg" width="100" height="100"><defs><marker id="dot"><circle r="5"/></marker></defs><path d="m0 0h10 20"/><path d="m0 0v10 20"/><path d="m0 0h10 0.5v10 0.5"/><path d="m0 0h10 -1v10 -1"/><path marker-end="url(#dot)" marker-start="url(#dot)" d="m0 0h10 20"/><path d="m0 0h10 20" style="marker-start:url(#dot);marker-end:url(#dot)"/><path marker="url(#dot)" d="m0 0h10 20"/><path marker-mid="url(#dot)" d="m0 0h10 20"/><path d="m0 0h10 20" style="marker:url(#dot)"/><path d="m0 0h10 20" style="marker-mid:url(#dot)"/><path d="m 0 0 l 10 20 0.25 0.5 l 0.75 1.5 l 5 10 0.2 0.4 l 3 6 0.8 1.6 l 0 1 l 1 2 9 18"/><path d="m 0 0 10 10 -20 -20 l 10 10 -20 -20"/><path d="m0 0 1 2 m 1 2 1 2l 1 2 m 1 2 1 2 1 2"/><path d="m 6.3227953,7.1547422 10.6709787,5.9477588 9.20334,5.129731 22.977448,12.807101 30.447251,16.970601 7.898986,4.402712"/></svg>